<?xml version="1.0" standalone="no"?>
<!DOCTYPE svg PUBLIC "-//W3C//DTD SVG 20010904//EN"
 "http://www.w3.org/TR/2001/REC-SVG-20010904/DTD/svg10.dtd">
<svg version="1.0" xmlns="http://www.w3.org/2000/svg"
 width="700.000000pt" height="700.000000pt" viewBox="0 0 700.000000 700.000000"
 preserveAspectRatio="xMidYMid meet">
<metadata>
Created by potrace 1.14, written by Peter Selinger 2001-2017
</metadata>
<g transform="translate(0.000000,700.000000) scale(0.100000,-0.100000)"
fill="#000000" stroke="none">
<path d="M535 6980 c-245 -65 -419 -226 -502 -465 l-28 -80 0 -2930 0 -2930
23 -73 c84 -265 291 -446 562 -492 46 -8 894 -10 2955 -8 l2890 3 80 28 c220
77 374 232 452 453 l28 79 0 2935 0 2935 -27 80 c-38 111 -91 196 -174 279
-85 85 -153 127 -271 170 l-88 31 -2915 2 c-2811 2 -2917 1 -2985 -17z"/>
</g>
</svg>
